# xmcd
#
# Track frame offsets:
#	182
#	20030
#	34465
#	50572
#	65827
#	83085
#	95760
#	111427
#	128582
#	145970
#	162637
#	177852
#	194407
#	216790
#	236540
#
# Disc length: 3521 seconds
#
# Revision: 0
# Processed by: cddbd v1.4PL0 Copyright (c) Steve Scherf et al.
# Submitted via: audiograbber 1.81.00
#
DISCID=e50dbf0f
DTITLE=FIORELLA MANNOIA - RACCOLTA
DYEAR=1900
DGENRE=POP
TTITLE0=CAFFE' NERO BOLLENTE
TTITLE1=E MUOVITI UN PO'
TTITLE2=NON SI POSSONO CORRERE RISCHI 
TTITLE3=MA SARA' VERO
TTITLE4=CANZONE LEGGERISSIMA
TTITLE5=DIMMI DI NO 
TTITLE6=TORNERANNO GLI ANGELI
TTITLE7=L'ALTRA FACCIA DELLA LUNA
TTITLE8=BELLA GIOVENTU'
TTITLE9=ATLANTIDE NON VEDRO'
TTITLE10=IL POSTO DELLE VIOLE
TTITLE11=CANTO CONTRO
TTITLE12=BAIA SENZA VENTO
TTITLE13=LA GIOSTRA DELLA MEMORIA
TTITLE14=LE CANZONI
EXTD=
EXTT0=
EXTT1=
EXTT2=
EXTT3=
EXTT4=
EXTT5=
EXTT6=
EXTT7=
EXTT8=
EXTT9=
EXTT10=
EXTT11=
EXTT12=
EXTT13=
EXTT14=
PLAYORDER=
